<svg width="261" height="220" viewBox="0 0 261 220" fill="none" xmlns="http://www.w3.org/2000/svg">
<path d="M0.633789 176V140.453H13.085C17.3981 140.453 20.6696 141.283 22.8994 142.943C25.1292 144.587 26.2441 147.004 26.2441 150.194C26.2441 151.936 25.7965 153.474 24.9014 154.809C24.0062 156.127 22.7611 157.095 21.166 157.714C22.9889 158.17 24.4212 159.089 25.4629 160.473C26.5208 161.856 27.0498 163.549 27.0498 165.551C27.0498 168.969 25.9593 171.557 23.7783 173.314C21.5973 175.072 18.4886 175.967 14.4521 176H0.633789ZM7.95801 160.521V170.116H14.2324C15.9577 170.116 17.3005 169.709 18.2607 168.896C19.2373 168.065 19.7256 166.926 19.7256 165.478C19.7256 162.222 18.041 160.57 14.6719 160.521H7.95801ZM7.95801 155.346H13.3779C17.0726 155.281 18.9199 153.808 18.9199 150.927C18.9199 149.315 18.4479 148.16 17.5039 147.46C16.5762 146.744 15.1032 146.386 13.085 146.386H7.95801V155.346Z" fill="black"/>
<path d="M66.3916 170.116H81.9434V176H59.0674V140.453H66.3916V170.116Z" fill="black"/>
<path d="M133.224 168.676H120.382L117.94 176H110.152L123.385 140.453H130.172L143.478 176H135.689L133.224 168.676ZM122.359 162.743H131.246L126.778 149.438L122.359 162.743Z" fill="black"/>
<path d="M200.666 164.159C200.389 167.984 198.973 170.995 196.418 173.192C193.879 175.39 190.526 176.488 186.359 176.488C181.802 176.488 178.213 174.958 175.593 171.898C172.989 168.822 171.687 164.607 171.687 159.252V157.079C171.687 153.661 172.289 150.65 173.493 148.046C174.698 145.442 176.415 143.448 178.645 142.064C180.891 140.665 183.495 139.965 186.457 139.965C190.559 139.965 193.863 141.063 196.369 143.261C198.876 145.458 200.324 148.542 200.715 152.514H193.391C193.212 150.219 192.569 148.559 191.462 147.533C190.371 146.492 188.703 145.971 186.457 145.971C184.016 145.971 182.185 146.85 180.964 148.607C179.759 150.349 179.141 153.059 179.108 156.737V159.423C179.108 163.264 179.686 166.072 180.842 167.846C182.014 169.62 183.853 170.507 186.359 170.507C188.622 170.507 190.306 169.994 191.413 168.969C192.536 167.927 193.179 166.324 193.342 164.159H200.666Z" fill="black"/>
<path d="M243.108 161.742L239.3 165.844V176H231.976V140.453H239.3V156.566L242.522 152.147L251.58 140.453H260.589L247.967 156.249L260.955 176H252.239L243.108 161.742Z" fill="black"/>
<path d="M36.8574 207.476V220H29.5332V184.453H43.4004C46.0697 184.453 48.4134 184.941 50.4316 185.918C52.4661 186.895 54.0286 188.286 55.1191 190.093C56.2096 191.883 56.7549 193.926 56.7549 196.221C56.7549 199.704 55.5586 202.454 53.166 204.473C50.7897 206.475 47.4938 207.476 43.2783 207.476H36.8574ZM36.8574 201.543H43.4004C45.3372 201.543 46.8102 201.087 47.8193 200.176C48.8447 199.264 49.3574 197.962 49.3574 196.27C49.3574 194.528 48.8447 193.12 47.8193 192.046C46.7939 190.972 45.3779 190.418 43.5713 190.386H36.8574V201.543Z" fill="black"/>
<path d="M109.695 204.595H95.6328V214.116H112.137V220H88.3086V184.453H112.088V190.386H95.6328V198.857H109.695V204.595Z" fill="black"/>
<path d="M163.002 212.676H150.16L147.719 220H139.931L153.163 184.453H159.95L173.256 220H165.468L163.002 212.676ZM152.138 206.743H161.024L156.557 193.438L152.138 206.743Z" fill="black"/>
<path d="M214.209 205.742L210.4 209.844V220H203.076V184.453H210.4V200.566L213.623 196.147L222.681 184.453H231.689L219.067 200.249L232.056 220H223.34L214.209 205.742Z" fill="black"/>
<path d="M129.5 0L172 67L217 135L141 76.5L151.5 49.5L41 135L129.5 0Z" fill="black"/>
</svg>
